<?xml version="1.0" encoding="UTF-8" ?>
<!DOCTYPE svg PUBLIC "-//W3C//DTD SVG 1.1//EN" "http://www.w3.org/Graphics/SVG/1.1/DTD/svg11.dtd">
<svg width="603pt" height="641pt" viewBox="0 0 603 641" version="1.1" xmlns="http://www.w3.org/2000/svg">
<g id="#286aa3ff">
<path fill="#286aa3" opacity="1.00" d=" M 220.46 21.93 C 230.52 13.11 242.65 6.21 256.03 4.19 C 269.14 1.73 282.86 5.80 293.51 13.58 C 303.05 20.38 310.24 29.98 315.83 40.16 C 329.44 65.72 333.12 95.53 330.82 124.09 C 330.57 129.65 329.12 135.10 329.21 140.68 C 330.53 139.48 331.90 138.34 333.38 137.33 C 344.92 129.22 356.46 121.10 368.00 112.98 C 373.82 108.67 379.99 104.64 386.92 102.34 C 398.42 99.22 411.23 100.35 421.67 106.26 C 431.17 111.08 437.88 120.63 439.51 131.13 C 440.79 137.48 440.05 144.00 438.67 150.27 C 449.05 151.24 459.38 155.61 466.40 163.48 C 472.95 170.98 475.60 181.28 474.81 191.09 C 474.64 196.97 472.56 202.51 470.69 208.01 C 482.66 210.32 493.72 218.83 497.75 230.55 C 502.63 244.44 499.45 260.42 490.81 272.16 C 499.50 275.72 507.44 281.63 511.64 290.23 C 520.43 309.03 513.19 333.57 495.98 345.01 C 467.23 365.24 438.45 385.43 409.75 405.72 C 400.48 413.84 391.30 422.09 381.50 429.58 C 374.27 436.12 365.94 441.25 358.15 447.08 C 348.73 454.60 338.52 461.14 327.83 466.71 C 317.12 472.15 305.49 475.31 294.42 479.84 C 286.05 483.56 278.49 488.76 270.46 493.07 C 270.38 494.06 270.00 495.22 270.79 496.07 C 282.88 513.04 294.71 530.21 306.86 547.14 C 306.73 547.58 306.46 548.47 306.33 548.92 C 295.01 556.32 284.18 564.45 273.03 572.11 C 241.37 594.43 209.65 616.68 178.00 639.03 C 177.27 639.72 176.46 639.89 175.56 639.56 C 117.32 556.95 59.28 474.19 0.96 391.64 C 1.15 391.24 1.52 390.44 1.71 390.04 C 17.26 379.58 32.38 368.49 47.79 357.83 C 75.53 338.23 103.37 318.76 131.10 299.13 C 131.55 299.29 132.45 299.59 132.90 299.74 C 138.15 307.82 143.80 315.65 149.45 323.45 L 150.01 323.61 C 155.64 319.99 160.82 315.72 166.51 312.21 C 168.53 308.50 168.04 304.08 168.93 300.06 C 177.39 247.79 191.35 196.22 212.66 147.67 C 222.37 125.25 231.51 102.20 234.91 77.86 C 236.61 64.67 236.30 50.64 230.31 38.50 C 227.38 32.77 224.14 27.20 220.46 21.93 M 249.04 28.53 C 259.13 49.12 257.57 73.14 252.97 94.97 C 247.76 121.00 236.90 145.35 226.53 169.63 C 206.80 218.87 193.71 270.77 187.33 323.41 C 179.21 329.54 170.78 335.30 162.38 341.04 C 164.50 344.96 167.39 348.39 169.89 352.06 C 198.96 393.57 228.33 434.88 257.29 476.46 C 272.57 466.66 288.80 458.01 306.27 452.83 C 319.76 448.33 331.67 440.27 343.21 432.14 C 359.66 420.49 375.23 407.65 390.40 394.41 C 393.14 391.84 395.89 389.27 398.99 387.13 C 427.80 366.83 456.63 346.55 485.45 326.27 C 490.65 322.40 495.16 316.73 495.39 310.00 C 495.42 302.25 490.71 294.53 483.62 291.28 C 477.81 288.17 470.30 289.29 465.20 293.31 C 464.25 293.67 462.89 295.53 462.01 294.14 C 457.84 288.60 454.04 282.79 449.95 277.19 C 456.59 272.44 463.34 267.84 470.00 263.12 C 474.32 260.08 478.01 255.78 479.45 250.62 C 482.23 239.84 473.85 227.67 462.78 226.47 C 457.12 225.82 451.60 228.18 447.11 231.44 C 442.84 225.59 438.78 219.60 434.49 213.77 C 441.02 209.07 449.04 205.47 452.92 197.96 C 459.55 186.10 448.66 168.94 435.07 170.20 C 431.59 170.27 428.09 171.21 425.27 173.29 C 424.07 174.00 422.24 175.85 421.12 174.03 C 417.27 168.59 413.36 163.18 409.72 157.60 C 413.58 154.85 417.07 151.31 418.84 146.83 C 423.99 134.87 412.94 119.67 400.03 120.56 C 395.26 121.06 390.66 122.90 386.86 125.82 C 356.08 147.54 325.23 169.18 294.44 190.90 C 300.65 167.91 308.26 145.02 309.75 121.09 C 311.99 96.79 308.21 71.59 296.89 49.81 C 292.47 41.51 287.17 32.96 278.72 28.27 C 269.66 23.05 258.17 24.08 249.04 28.53 M 33.28 394.20 C 32.21 394.94 31.25 395.82 30.31 396.73 C 31.94 398.52 33.41 400.44 34.74 402.47 C 83.44 471.92 132.51 541.12 181.09 610.66 C 213.31 588.18 245.35 565.44 277.53 542.89 C 260.86 518.79 243.69 495.05 226.92 471.03 C 193.55 423.48 159.92 376.12 126.73 328.45 C 95.56 350.34 64.44 372.30 33.28 394.20 Z" />
<path fill="#286aa3" opacity="1.00" d=" M 217.14 302.75 C 213.81 266.50 217.29 228.86 231.90 195.21 C 238.40 198.12 244.97 200.84 251.39 203.93 C 238.27 234.17 235.43 267.97 238.27 300.54 C 231.19 300.92 224.24 302.80 217.14 302.75 Z" />
<path fill="#286aa3" opacity="1.00" d=" M 104.65 356.47 C 133.83 398.57 163.57 440.30 192.98 482.24 C 187.27 486.30 181.50 490.29 175.81 494.39 C 175.64 494.33 175.30 494.22 175.13 494.17 C 145.84 452.37 116.36 410.71 87.05 368.93 C 92.89 364.74 98.81 360.67 104.65 356.47 Z" />
</g>
<g id="#ee731bff">
<path fill="#ee731b" opacity="1.00" d=" M 174.05 514.19 C 189.11 504.67 210.97 509.18 221.77 523.13 C 232.54 538.24 229.21 562.07 213.91 572.92 C 202.88 580.27 188.22 579.08 176.76 573.35 C 169.63 568.85 163.54 562.19 161.22 553.95 C 159.79 549.40 160.37 544.58 160.47 539.91 C 160.47 529.84 165.83 519.94 174.05 514.19 M 187.76 530.69 C 183.57 533.44 179.11 537.53 179.73 543.07 C 181.07 550.30 186.52 557.67 194.34 558.29 C 200.64 557.14 207.23 552.77 208.14 545.99 C 208.28 540.20 204.61 535.09 200.43 531.44 C 196.93 528.40 191.72 528.80 187.76 530.69 Z" />
</g>
</svg>
