<?xml version="1.0" encoding="utf-8"?>
<!-- Generator: Adobe Illustrator 16.0.0, SVG Export Plug-In . SVG Version: 6.00 Build 0)  -->
<!DOCTYPE svg PUBLIC "-//W3C//DTD SVG 1.1//EN" "http://www.w3.org/Graphics/SVG/1.1/DTD/svg11.dtd">
<svg version="1.1" id="Laag_1" xmlns="http://www.w3.org/2000/svg" xmlns:xlink="http://www.w3.org/1999/xlink" x="0px" y="0px"
	 width="410px" height="169.346px" viewBox="0 0 410 169.346" enable-background="new 0 0 410 169.346" xml:space="preserve">
<polygon fill="#286AA3" points="137.238,35.613 237.86,0 237.86,15.443 "/>
<polygon fill="#286AA3" points="137.238,47.054 237.86,25.49 237.86,40.896 "/>
<polygon fill="#286AA3" points="137.238,58.496 237.86,50.981 237.86,66.35 "/>
<polygon fill="#286AA3" points="137.238,69.937 237.86,76.471 237.86,91.802 "/>
<polyline fill="#EA872B" points="237.86,0 237.86,15.443 272.98,45.926 "/>
<polygon fill="#EA872B" points="272.98,51.223 237.86,25.491 237.86,40.896 "/>
<polygon fill="#EA872B" points="272.98,56.52 237.86,50.981 237.86,66.349 "/>
<polygon fill="#EA872B" points="272.98,61.817 237.86,76.472 237.86,91.802 "/>
<g>
	<defs>
		<rect id="SVGID_1_" x="-47" y="-128.92" width="500" height="500"/>
	</defs>
	<clipPath id="SVGID_2_">
		<use xlink:href="#SVGID_1_"  overflow="visible"/>
	</clipPath>
	<path clip-path="url(#SVGID_2_)" fill="#286AA3" d="M9.983,135.848c-1.289-0.157-2.513-0.449-3.673-0.873
		c-1.16-0.425-2.159-1.094-2.996-2.007c-0.613-0.756-1.071-1.564-1.377-2.432c-0.307-0.866-0.507-1.755-0.604-2.668l1.45-16.008
		c0.354-1.322,0.837-2.566,1.45-3.73c0.611-1.164,1.48-2.25,2.609-3.258c0.901-0.756,1.86-1.322,2.875-1.7
		c1.015-0.378,2.086-0.597,3.214-0.661h26.821c1.19,0.158,2.302,0.441,3.333,0.85c1.032,0.409,1.934,1.118,2.707,2.124
		c0.58,0.851,0.958,1.771,1.136,2.763c0.176,0.992,0.168,2.023-0.025,3.093c-0.193,0.346-0.434,0.669-0.725,0.968
		c-0.29,0.3-0.612,0.527-0.966,0.685l-1.498,0.141l-1.256-0.754c-0.452-0.599-0.622-1.316-0.508-2.15
		c0.113-0.834-0.137-1.503-0.749-2.007l-1.643-0.755H12.496c-0.516,0.094-1.015,0.245-1.498,0.449
		c-0.484,0.204-0.983,0.527-1.498,0.968c-0.452,0.566-0.838,1.165-1.16,1.794c-0.323,0.63-0.532,1.275-0.629,1.936l-1.305,14.119
		c0.033,0.505,0.113,1.001,0.242,1.487c0.128,0.489,0.339,0.952,0.629,1.393c0.418,0.315,0.853,0.584,1.305,0.804
		c0.45,0.22,0.933,0.363,1.449,0.424H37.48l1.787-0.99c0.354-0.598,0.564-1.268,0.629-2.007c0.065-0.74,0.387-1.409,0.967-2.007
		c0.386-0.251,0.773-0.44,1.159-0.567c0.388-0.126,0.838-0.142,1.353-0.048c0.322,0.159,0.629,0.349,0.919,0.568
		c0.289,0.22,0.498,0.487,0.629,0.802l0.048,1.889c-0.162,1.071-0.516,2.109-1.064,3.116c-0.548,1.008-1.353,1.89-2.416,2.646
		c-0.71,0.472-1.45,0.835-2.224,1.086c-0.772,0.252-1.594,0.425-2.463,0.519H9.983z"/>
	<path clip-path="url(#SVGID_2_)" fill="#286AA3" d="M50.28,135.848c-0.161-0.094-0.37-0.157-0.628-0.188
		c-0.258-0.031-0.468-0.133-0.629-0.308c-0.16-0.172-0.321-0.337-0.482-0.496l-0.386-0.896l1.062-11.711
		c0.45-1.322,1.304-1.998,2.561-2.031h24.018c1.418-0.409,2.183-0.739,2.295-0.991c0.113-0.251,0.267-0.52,0.46-0.803
		c0.193-0.283,0.297-0.573,0.314-0.873c0.015-0.299,0.088-0.607,0.217-0.921c-0.065-0.346-0.097-0.669-0.097-0.968
		c0-0.3-0.057-0.567-0.168-0.803c-0.114-0.236-0.284-0.48-0.508-0.732c-0.259-0.188-0.484-0.346-0.677-0.472
		c-0.193-0.125-0.443-0.228-0.749-0.307c-0.306-0.078-0.572-0.148-0.797-0.213H51.922l-1.353-0.897
		c-0.129-0.156-0.226-0.361-0.29-0.614c-0.064-0.251-0.089-0.503-0.072-0.756c0.015-0.251,0.04-0.503,0.072-0.754
		c0.483-1.04,1.176-1.669,2.079-1.89h24.935c0.644,0.19,1.305,0.386,1.981,0.59c0.677,0.206,1.297,0.496,1.86,0.875
		c0.564,0.377,1.055,0.849,1.475,1.416c0.483,0.661,0.862,1.346,1.135,2.054c0.274,0.708,0.418,1.48,0.435,2.313
		c0.016,0.835-0.056,1.677-0.217,2.527c-0.162,0.504-0.314,0.984-0.459,1.44c-0.145,0.457-0.37,0.89-0.678,1.299
		c-0.305,0.409-0.572,0.819-0.797,1.228c0.258,0.189,0.501,0.409,0.726,0.66c0.225,0.253,0.418,0.521,0.579,0.804
		s0.354,0.55,0.581,0.801c0.418,1.011,0.643,2.032,0.676,3.071c0.032,1.039-0.024,2.117-0.169,3.234
		c-0.144,1.118-0.266,2.227-0.362,3.329c-0.387,1.291-1.337,1.951-2.851,1.982c-1.289-0.313-1.983-1.021-2.079-2.124l0.241-3.259
		c0.356-2.424,0.161-3.919-0.579-4.485c-0.193-0.157-0.386-0.282-0.579-0.379c-0.195-0.095-0.42-0.155-0.678-0.188
		c-0.257-0.03-0.466-0.094-0.627-0.189H53.905l-0.774,8.737c-0.129,0.188-0.266,0.386-0.411,0.59
		c-0.145,0.205-0.331,0.409-0.556,0.613c-0.225,0.206-0.418,0.354-0.579,0.449L50.28,135.848z"/>
	<path clip-path="url(#SVGID_2_)" fill="#286AA3" d="M89.466,135.848c-0.161-0.095-0.37-0.156-0.627-0.188
		c-0.259-0.031-0.468-0.133-0.629-0.307c-0.161-0.173-0.322-0.339-0.483-0.496l-0.386-0.896l1.207-13.364
		c0.452-1.227,1.256-1.842,2.416-1.842h28.271c0.161,0.064,0.37,0.119,0.627,0.166c0.258,0.047,0.467,0.15,0.629,0.307
		c0.161,0.157,0.306,0.33,0.435,0.519c0.161,0.159,0.257,0.339,0.289,0.543c0.033,0.204,0.049,0.433,0.049,0.685v0.756
		c-0.451,1.07-1.241,1.731-2.367,1.982H93.235l-0.629,7.13h28.9c0.675,0.223,1.078,0.442,1.206,0.662
		c0.129,0.22,0.251,0.456,0.363,0.707c0.113,0.253,0.177,0.505,0.193,0.757c0.016,0.253,0.009,0.552-0.023,0.897
		c-0.452,1.102-1.273,1.763-2.465,1.982H89.466z M91.108,113.135l-1.353-0.898c-0.129-0.155-0.225-0.36-0.29-0.613
		c-0.064-0.251-0.089-0.503-0.071-0.756c0.014-0.252,0.039-0.503,0.071-0.755c0.419-1.102,1.112-1.731,2.079-1.889h32.087
		c0.774,0.347,1.233,0.623,1.378,0.827c0.145,0.205,0.241,0.433,0.29,0.685c0.048,0.252,0.064,0.503,0.048,0.755
		c-0.016,0.253-0.041,0.504-0.073,0.756c-0.419,0.943-1.11,1.574-2.077,1.888H91.108z"/>
	<path clip-path="url(#SVGID_2_)" fill="#286AA3" d="M132.229,135.848c-0.71-0.094-1.37-0.22-1.983-0.377
		c-0.611-0.157-1.206-0.402-1.787-0.732c-0.579-0.33-1.096-0.747-1.546-1.252c-0.387-0.503-0.733-1.031-1.039-1.581
		c-0.307-0.55-0.532-1.118-0.677-1.701c-0.145-0.582-0.234-1.202-0.265-1.863l1.158-12.75c0.226-0.662,0.476-1.322,0.749-1.984
		c0.274-0.66,0.646-1.305,1.112-1.935c0.467-0.629,1.023-1.196,1.668-1.7c0.45-0.251,0.901-0.496,1.353-0.731
		c0.45-0.236,0.919-0.441,1.401-0.615c0.483-0.173,0.998-0.306,1.547-0.402h21.215c0.644,0.19,1.296,0.386,1.957,0.591
		c0.66,0.205,1.271,0.513,1.836,0.922c0.563,0.408,1.071,0.913,1.523,1.51c0.32,0.409,0.586,0.842,0.797,1.298
		c0.209,0.458,0.354,0.961,0.435,1.511c0.08,0.552,0.184,1.064,0.314,1.535l-1.112,12.655c-0.225,0.725-0.482,1.44-0.774,2.149
		c-0.289,0.708-0.675,1.377-1.16,2.007c-0.482,0.629-1.079,1.197-1.787,1.7c-0.452,0.346-0.951,0.637-1.498,0.873
		c-0.549,0.236-1.105,0.417-1.668,0.543s-1.135,0.236-1.714,0.33H132.229z M154.168,130.37c0.354-0.252,0.652-0.525,0.894-0.825
		c0.241-0.3,0.418-0.639,0.532-1.016c0.111-0.379,0.233-0.725,0.362-1.039l0.967-10.766c-0.065-0.315-0.106-0.645-0.122-0.992
		c-0.016-0.346-0.12-0.661-0.313-0.945c-0.193-0.283-0.404-0.55-0.629-0.802c-0.257-0.157-0.483-0.299-0.676-0.426
		c-0.193-0.124-0.42-0.211-0.677-0.259c-0.258-0.047-0.499-0.101-0.724-0.165H134.5c-0.291,0.064-0.564,0.118-0.822,0.165
		c-0.259,0.048-0.524,0.135-0.797,0.259c-0.275,0.127-0.492,0.316-0.652,0.568c-0.194,0.251-0.387,0.496-0.581,0.731
		c-0.193,0.236-0.331,0.504-0.41,0.804c-0.082,0.298-0.17,0.574-0.266,0.826l-0.967,11.097c0.032,0.347,0.08,0.685,0.145,1.015
		c0.064,0.33,0.202,0.646,0.411,0.945s0.443,0.573,0.701,0.825l1.401,0.473h20.055L154.168,130.37z"/>
	<path clip-path="url(#SVGID_2_)" fill="#286AA3" d="M183.29,135.848c-2.32-0.157-4.156-1.116-5.509-2.88
		c-0.87-1.259-1.339-2.676-1.401-4.25l0.144-1.604c0.451-0.851,0.885-1.401,1.305-1.654c0.419-0.251,1.046-0.33,1.884-0.236
		c1.225,0.349,1.795,0.978,1.716,1.891c-0.082,0.913,0.065,1.699,0.436,2.359c0.369,0.662,0.989,1.118,1.861,1.369h26.577
		c1.354-0.251,2.595-0.88,3.721-1.888c0.483-0.66,0.84-1.401,1.065-2.22l0.192-1.889c0.032-1.165-0.436-2.155-1.4-2.974
		c-0.711-0.598-1.58-0.977-2.61-1.134h-24.502c-2.964-0.157-5.461-1.322-7.49-3.495c-0.935-1.258-1.435-2.627-1.498-4.108
		l0.241-3.021c0.515-1.984,1.691-3.731,3.527-5.242c2.159-1.417,4.447-2.203,6.864-2.361h25.95c2.288,0.158,4.172,0.992,5.656,2.502
		c1.287,1.637,1.834,3.59,1.641,5.855c-0.132,0.662-0.518,1.245-1.161,1.748c-0.644,0.409-1.384,0.584-2.221,0.519
		c-0.808-0.377-1.305-0.817-1.498-1.322c-0.192-0.503-0.284-1.235-0.266-2.195c0.014-0.961-0.768-1.677-2.344-2.149h-26.483
		c-1.448,0.189-2.724,0.788-3.818,1.794c-0.611,0.819-0.951,1.732-1.015,2.739c-0.096,0.976,0.243,1.811,1.015,2.503
		c0.872,0.661,1.902,1.07,3.093,1.227h24.695c2.771,0.253,5.123,1.464,7.058,3.637c1.126,1.668,1.69,3.54,1.69,5.619l-0.146,1.604
		c-0.419,2.676-1.773,4.974-4.059,6.895c-2.095,1.416-4.336,2.203-6.718,2.36H183.29z"/>
	<path clip-path="url(#SVGID_2_)" fill="#286AA3" d="M224.843,135.848c-0.161-0.095-0.372-0.156-0.629-0.188
		c-0.258-0.031-0.465-0.133-0.626-0.307c-0.164-0.173-0.325-0.339-0.486-0.496l-0.386-0.896l1.208-13.364
		c0.451-1.227,1.258-1.842,2.417-1.842h28.271c0.16,0.064,0.368,0.119,0.629,0.166c0.258,0.047,0.466,0.15,0.626,0.307
		c0.161,0.157,0.308,0.33,0.436,0.519c0.161,0.159,0.258,0.339,0.29,0.543s0.05,0.433,0.05,0.685v0.756
		c-0.454,1.07-1.241,1.731-2.37,1.982h-25.66l-0.626,7.13h28.896c0.678,0.223,1.079,0.442,1.208,0.662s0.249,0.456,0.363,0.707
		c0.113,0.253,0.178,0.505,0.192,0.757c0.018,0.253,0.01,0.552-0.023,0.897c-0.45,1.102-1.272,1.763-2.463,1.982H224.843z
		 M226.487,113.135l-1.355-0.898c-0.128-0.155-0.225-0.36-0.289-0.613c-0.064-0.251-0.088-0.503-0.073-0.756
		c0.018-0.252,0.041-0.503,0.073-0.755c0.418-1.102,1.112-1.731,2.077-1.889h32.089c0.772,0.347,1.231,0.623,1.378,0.827
		c0.144,0.205,0.239,0.433,0.289,0.685c0.047,0.252,0.065,0.503,0.047,0.755c-0.015,0.253-0.038,0.504-0.069,0.756
		c-0.422,0.943-1.112,1.574-2.08,1.888H226.487z"/>
	<path clip-path="url(#SVGID_2_)" fill="#286AA3" d="M262.435,135.848c-0.161-0.094-0.372-0.157-0.629-0.188
		s-0.465-0.133-0.626-0.308c-0.164-0.172-0.325-0.337-0.486-0.496l-0.386-0.896l1.064-11.711c0.451-1.322,1.306-1.998,2.561-2.031
		h24.017c1.419-0.409,2.183-0.739,2.296-0.991c0.111-0.251,0.268-0.52,0.46-0.803c0.193-0.283,0.298-0.573,0.313-0.873
		c0.017-0.299,0.087-0.607,0.219-0.921c-0.067-0.346-0.096-0.669-0.096-0.968c0-0.3-0.06-0.567-0.17-0.803
		c-0.114-0.236-0.284-0.48-0.51-0.732c-0.258-0.188-0.482-0.346-0.676-0.472c-0.192-0.125-0.441-0.228-0.749-0.307
		c-0.307-0.078-0.572-0.148-0.796-0.213h-24.163l-1.354-0.897c-0.129-0.156-0.227-0.361-0.29-0.614
		c-0.064-0.251-0.088-0.503-0.073-0.756c0.017-0.251,0.041-0.503,0.073-0.754c0.482-1.04,1.176-1.669,2.077-1.89h24.936
		c0.646,0.19,1.304,0.386,1.983,0.59c0.676,0.206,1.296,0.496,1.86,0.875c0.563,0.377,1.054,0.849,1.472,1.416
		c0.485,0.661,0.863,1.346,1.139,2.054c0.272,0.708,0.418,1.48,0.433,2.313c0.018,0.835-0.056,1.677-0.217,2.527
		c-0.161,0.504-0.313,0.984-0.459,1.44c-0.146,0.457-0.372,0.89-0.676,1.299c-0.307,0.409-0.574,0.819-0.799,1.228
		c0.258,0.189,0.501,0.409,0.726,0.66c0.226,0.253,0.418,0.521,0.579,0.804s0.354,0.55,0.579,0.801
		c0.419,1.011,0.647,2.032,0.679,3.071c0.029,1.039-0.025,2.117-0.17,3.234c-0.146,1.118-0.266,2.227-0.361,3.329
		c-0.388,1.291-1.338,1.951-2.854,1.982c-1.287-0.313-1.98-1.021-2.077-2.124l0.243-3.259c0.354-2.424,0.161-3.919-0.582-4.485
		c-0.194-0.157-0.387-0.282-0.58-0.379c-0.193-0.095-0.418-0.155-0.676-0.188c-0.257-0.03-0.468-0.094-0.629-0.189H266.06
		l-0.772,8.737c-0.132,0.188-0.267,0.386-0.413,0.59c-0.143,0.205-0.331,0.409-0.556,0.613c-0.225,0.206-0.418,0.354-0.579,0.449
		L262.435,135.848z"/>
	<path clip-path="url(#SVGID_2_)" fill="#286AA3" d="M315.248,135.848c-0.257-0.094-0.491-0.157-0.698-0.188
		c-0.211-0.031-0.413-0.157-0.606-0.377c-0.193-0.221-0.45-0.551-0.771-0.992l-13.242-22.383c-0.387-1.542-0.018-2.674,1.111-3.399
		c0.548-0.188,1.095-0.298,1.642-0.331c0.55-0.03,1.097,0.284,1.645,0.945l11.84,19.596l14.594-18.982
		c1.321-1.701,2.77-2.015,4.35-0.945c0.869,1.134,0.869,2.236,0,3.305l-17.203,22.288
		C317.068,135.392,316.182,135.879,315.248,135.848"/>
	<path clip-path="url(#SVGID_2_)" fill="#286AA3" d="M337.425,135.848c-0.161-0.095-0.372-0.156-0.629-0.188
		c-0.258-0.031-0.465-0.133-0.626-0.307c-0.164-0.173-0.325-0.339-0.486-0.496l-0.386-0.896l1.208-13.364
		c0.451-1.227,1.258-1.842,2.417-1.842h28.271c0.161,0.064,0.369,0.119,0.629,0.166c0.258,0.047,0.466,0.15,0.626,0.307
		c0.161,0.157,0.308,0.33,0.436,0.519c0.161,0.159,0.259,0.339,0.29,0.543c0.032,0.204,0.05,0.433,0.05,0.685v0.756
		c-0.453,1.07-1.24,1.731-2.369,1.982h-25.661l-0.626,7.13h28.896c0.679,0.223,1.079,0.442,1.208,0.662s0.249,0.456,0.363,0.707
		c0.114,0.253,0.178,0.505,0.193,0.757c0.017,0.253,0.009,0.552-0.024,0.897c-0.45,1.102-1.272,1.763-2.463,1.982H337.425z
		 M339.069,113.135l-1.355-0.898c-0.128-0.155-0.225-0.36-0.289-0.613c-0.064-0.251-0.088-0.503-0.072-0.756
		c0.017-0.252,0.04-0.503,0.072-0.755c0.418-1.102,1.112-1.731,2.077-1.889h32.089c0.772,0.347,1.231,0.623,1.378,0.827
		c0.144,0.205,0.239,0.433,0.289,0.685c0.047,0.252,0.065,0.503,0.047,0.755c-0.015,0.253-0.037,0.504-0.069,0.756
		c-0.421,0.943-1.112,1.574-2.08,1.888H339.069z"/>
	<path clip-path="url(#SVGID_2_)" fill="#286AA3" d="M375.014,135.848c-0.161-0.094-0.372-0.157-0.629-0.188
		s-0.465-0.133-0.626-0.308c-0.164-0.172-0.325-0.337-0.486-0.496l-0.386-0.896l1.065-11.711c0.45-1.322,1.305-1.998,2.56-2.031
		h24.017c1.419-0.409,2.183-0.739,2.296-0.991c0.111-0.251,0.268-0.52,0.461-0.803c0.192-0.283,0.298-0.573,0.313-0.873
		c0.017-0.299,0.087-0.607,0.219-0.921c-0.066-0.346-0.096-0.669-0.096-0.968c0-0.3-0.059-0.567-0.17-0.803
		c-0.114-0.236-0.284-0.48-0.509-0.732c-0.259-0.188-0.483-0.346-0.677-0.472c-0.192-0.125-0.441-0.228-0.748-0.307
		c-0.308-0.078-0.573-0.148-0.797-0.213h-24.163l-1.354-0.897c-0.129-0.156-0.226-0.361-0.29-0.614
		c-0.064-0.251-0.088-0.503-0.073-0.756c0.018-0.251,0.041-0.503,0.073-0.754c0.483-1.04,1.176-1.669,2.077-1.89h24.936
		c0.646,0.19,1.305,0.386,1.983,0.59c0.676,0.206,1.296,0.496,1.861,0.875c0.562,0.377,1.053,0.849,1.471,1.416
		c0.486,0.661,0.864,1.346,1.139,2.054c0.272,0.708,0.418,1.48,0.434,2.313c0.017,0.835-0.057,1.677-0.218,2.527
		c-0.16,0.504-0.313,0.984-0.459,1.44c-0.146,0.457-0.372,0.89-0.676,1.299c-0.307,0.409-0.574,0.819-0.799,1.228
		c0.258,0.189,0.5,0.409,0.726,0.66c0.226,0.253,0.418,0.521,0.579,0.804s0.354,0.55,0.579,0.801
		c0.419,1.011,0.647,2.032,0.68,3.071c0.028,1.039-0.026,2.117-0.171,3.234c-0.146,1.118-0.266,2.227-0.361,3.329
		c-0.388,1.291-1.337,1.951-2.854,1.982c-1.287-0.313-1.98-1.021-2.077-2.124l0.243-3.259c0.354-2.424,0.161-3.919-0.583-4.485
		c-0.192-0.157-0.386-0.282-0.579-0.379c-0.192-0.095-0.418-0.155-0.676-0.188c-0.257-0.03-0.468-0.094-0.629-0.189h-23.001
		l-0.771,8.737c-0.133,0.188-0.268,0.386-0.413,0.59c-0.144,0.205-0.331,0.409-0.557,0.613c-0.225,0.206-0.418,0.354-0.579,0.449
		L375.014,135.848z"/>
</g>
<g>
	<path fill="#286AA3" d="M45.676,169.346c-0.312-0.045-0.566-0.202-0.765-0.471l-0.191-0.47l1.041-12.513h-7.54
		c-0.424-0.134-0.715-0.426-0.871-0.873l0.063-0.604c0.284-0.553,0.637-0.843,1.063-0.873h17.203c0.623,0.12,0.92,0.529,0.892,1.23
		c-0.043,0.313-0.191,0.591-0.446,0.829l-0.595,0.291h-7.582l-1.041,12.558l-0.318,0.536
		C46.305,169.226,46.001,169.346,45.676,169.346z"/>
	<path fill="#286AA3" d="M59.415,169.346c-0.312-0.045-0.602-0.105-0.871-0.18c-0.269-0.074-0.532-0.19-0.786-0.347
		c-0.255-0.157-0.481-0.354-0.68-0.593c-0.17-0.238-0.322-0.489-0.456-0.75c-0.135-0.262-0.234-0.529-0.298-0.807
		c-0.064-0.275-0.103-0.57-0.117-0.884l0.51-6.044c0.099-0.313,0.208-0.627,0.329-0.94c0.12-0.313,0.283-0.619,0.488-0.918
		c0.205-0.297,0.449-0.566,0.733-0.805c0.198-0.12,0.396-0.236,0.595-0.348c0.198-0.112,0.403-0.209,0.616-0.291
		c0.213-0.081,0.439-0.146,0.679-0.189h9.324c0.283,0.089,0.569,0.183,0.86,0.279c0.29,0.098,0.559,0.242,0.807,0.437
		c0.247,0.194,0.47,0.433,0.668,0.717c0.142,0.193,0.258,0.398,0.351,0.615c0.092,0.217,0.155,0.455,0.191,0.716
		c0.035,0.261,0.081,0.504,0.138,0.728l-0.489,5.999c-0.099,0.344-0.212,0.684-0.34,1.019c-0.127,0.336-0.296,0.652-0.509,0.951
		c-0.212,0.299-0.475,0.567-0.786,0.807c-0.198,0.164-0.418,0.302-0.658,0.413c-0.241,0.113-0.485,0.198-0.732,0.258
		c-0.249,0.06-0.499,0.112-0.754,0.157H59.415z M69.057,166.748c0.156-0.119,0.287-0.249,0.393-0.392
		c0.106-0.142,0.184-0.302,0.234-0.481c0.05-0.179,0.103-0.343,0.159-0.491l0.425-5.104c-0.028-0.148-0.046-0.306-0.053-0.471
		c-0.007-0.163-0.053-0.313-0.138-0.447c-0.085-0.134-0.177-0.261-0.276-0.381c-0.114-0.073-0.212-0.141-0.297-0.2
		c-0.084-0.06-0.184-0.102-0.297-0.123c-0.113-0.023-0.22-0.049-0.319-0.079h-8.474c-0.127,0.03-0.248,0.056-0.361,0.079
		c-0.114,0.021-0.23,0.063-0.351,0.123c-0.121,0.06-0.216,0.148-0.287,0.269c-0.085,0.119-0.17,0.234-0.255,0.347
		c-0.084,0.111-0.145,0.238-0.18,0.381c-0.036,0.142-0.074,0.272-0.117,0.392l-0.425,5.26c0.014,0.165,0.035,0.324,0.063,0.481
		s0.088,0.306,0.181,0.447c0.092,0.143,0.195,0.272,0.308,0.392l0.616,0.225h8.814L69.057,166.748z"/>
	<path fill="#286AA3" d="M74.087,169.346c-0.071-0.045-0.163-0.075-0.275-0.09c-0.114-0.016-0.206-0.063-0.276-0.146
		c-0.071-0.083-0.142-0.16-0.212-0.235l-0.17-0.425l0.467-5.552c0.213-0.656,0.588-0.977,1.126-0.963h11.235
		c0.453-0.119,0.754-0.265,0.902-0.436c0.149-0.172,0.258-0.328,0.33-0.471c0.071-0.142,0.109-0.279,0.117-0.414
		c0.007-0.134,0.039-0.284,0.096-0.447c-0.028-0.119-0.046-0.25-0.053-0.392c-0.007-0.143-0.035-0.28-0.085-0.415
		c-0.05-0.134-0.117-0.238-0.202-0.313c-0.114-0.09-0.216-0.165-0.308-0.224c-0.093-0.06-0.202-0.109-0.33-0.146
		c-0.127-0.036-0.241-0.07-0.34-0.101H74.81l-0.595-0.426c-0.057-0.073-0.099-0.17-0.127-0.29s-0.039-0.239-0.031-0.357
		c0.006-0.12,0.018-0.24,0.031-0.359c0.184-0.521,0.489-0.82,0.914-0.895h11.638c0.284,0.089,0.57,0.183,0.86,0.279
		c0.29,0.098,0.559,0.235,0.807,0.414c0.247,0.179,0.47,0.403,0.668,0.671c0.213,0.313,0.375,0.649,0.489,1.008
		c0.114,0.357,0.166,0.735,0.16,1.131c-0.007,0.395-0.032,0.787-0.074,1.175c-0.085,0.284-0.191,0.574-0.319,0.873
		s-0.272,0.563-0.435,0.795c-0.164,0.231-0.372,0.466-0.626,0.704c-0.241,0.195-0.486,0.351-0.733,0.471
		c-0.248,0.12-0.51,0.228-0.786,0.324c-0.276,0.098-0.563,0.168-0.86,0.213H75.681l-0.34,4.142
		c-0.057,0.089-0.117,0.183-0.181,0.279c-0.063,0.098-0.145,0.194-0.244,0.291c-0.1,0.098-0.184,0.168-0.255,0.213L74.087,169.346z"
		/>
	<path fill="#286AA3" d="M110.613,169.346c-1.231-0.075-2.273-0.59-3.122-1.545c-0.552-0.701-0.843-1.53-0.871-2.485l0.913-10.9
		c0.255-0.553,0.666-0.843,1.232-0.873c0.34,0.03,0.608,0.201,0.807,0.515l0.149,0.358l-0.872,10.363
		c-0.042,0.598,0.121,1.113,0.489,1.545c0.383,0.358,0.835,0.575,1.359,0.649h10.896c0.495-0.029,0.948-0.269,1.359-0.717
		c0.325-0.388,0.545-0.835,0.659-1.343l0.849-10.364c0.142-0.417,0.322-0.69,0.542-0.817c0.219-0.125,0.485-0.189,0.796-0.189
		c0.566,0.06,0.871,0.433,0.914,1.118l-0.828,10.074c-0.199,1.373-0.822,2.551-1.87,3.536c-0.807,0.643-1.699,1-2.676,1.075H110.613
		z"/>
	<path fill="#286AA3" d="M128.875,169.346c-0.269-0.045-0.531-0.116-0.786-0.213c-0.254-0.097-0.488-0.224-0.701-0.381
		c-0.212-0.157-0.403-0.354-0.573-0.594c-0.114-0.238-0.216-0.483-0.308-0.737c-0.092-0.254-0.152-0.519-0.18-0.796
		c-0.029-0.275-0.015-0.57,0.042-0.884c0.184-0.433,0.378-0.69,0.584-0.772c0.205-0.081,0.365-0.122,0.479-0.122
		c0.113,0,0.226,0,0.34,0c0.368,0.119,0.59,0.256,0.668,0.413s0.117,0.415,0.117,0.772c0.014,0.389,0.092,0.643,0.234,0.761
		l0.319,0.18h9.387c0.113-0.029,0.241-0.074,0.382-0.135c0.141-0.06,0.272-0.131,0.393-0.213c0.121-0.081,0.23-0.183,0.329-0.302
		s0.17-0.238,0.213-0.358c0.042-0.118,0.071-0.258,0.084-0.413c0.014-0.157,0.05-0.295,0.106-0.415
		c-0.028-0.118-0.05-0.258-0.064-0.414c-0.014-0.156-0.05-0.283-0.106-0.381c-0.057-0.097-0.142-0.204-0.255-0.323
		c-0.057-0.075-0.135-0.143-0.233-0.202c-0.099-0.06-0.191-0.101-0.276-0.123s-0.185-0.056-0.297-0.101h-8.75
		c-0.311-0.03-0.623-0.094-0.934-0.19c-0.312-0.098-0.598-0.227-0.86-0.392c-0.263-0.164-0.492-0.366-0.69-0.604
		c-0.212-0.269-0.39-0.57-0.531-0.906c-0.141-0.337-0.212-0.684-0.212-1.042c0-0.357,0.035-0.729,0.105-1.118
		c0.043-0.284,0.121-0.553,0.234-0.807c0.113-0.254,0.258-0.488,0.435-0.705c0.177-0.216,0.378-0.422,0.605-0.615
		c0.24-0.164,0.478-0.313,0.711-0.447c0.233-0.134,0.474-0.232,0.722-0.291c0.248-0.06,0.514-0.135,0.797-0.224h9.833
		c0.212,0.044,0.436,0.115,0.669,0.212c0.233,0.098,0.449,0.217,0.647,0.358s0.375,0.31,0.531,0.503
		c0.184,0.239,0.322,0.486,0.414,0.739c0.092,0.254,0.156,0.53,0.192,0.828c0.035,0.299,0.031,0.579-0.011,0.84
		c-0.042,0.262-0.212,0.503-0.51,0.727c-0.071,0.075-0.167,0.135-0.286,0.18c-0.121,0.044-0.245,0.067-0.372,0.067s-0.248,0-0.361,0
		c-0.255-0.104-0.439-0.238-0.553-0.402c-0.113-0.165-0.163-0.337-0.148-0.516s0.007-0.347-0.021-0.504
		c-0.028-0.156-0.049-0.294-0.063-0.414c-0.014-0.119-0.233-0.216-0.658-0.291h-9.111c-0.156,0.03-0.308,0.064-0.457,0.101
		c-0.148,0.037-0.293,0.098-0.435,0.18c-0.142,0.083-0.276,0.183-0.403,0.302c-0.071,0.074-0.124,0.171-0.16,0.291
		c-0.035,0.12-0.063,0.228-0.084,0.325c-0.021,0.097-0.032,0.204-0.032,0.324l0.212,0.649c0.114,0.089,0.213,0.164,0.297,0.224
		c0.085,0.06,0.181,0.108,0.287,0.145c0.106,0.038,0.216,0.079,0.33,0.124h8.708c0.368,0.03,0.718,0.104,1.051,0.224
		c0.333,0.119,0.638,0.28,0.913,0.481c0.276,0.201,0.535,0.459,0.775,0.772c0.213,0.313,0.369,0.639,0.468,0.974
		c0.099,0.336,0.141,0.701,0.127,1.097c-0.015,0.395-0.036,0.787-0.063,1.175c-0.099,0.313-0.213,0.619-0.34,0.918
		c-0.127,0.299-0.294,0.574-0.5,0.828c-0.206,0.254-0.45,0.501-0.732,0.739c-0.227,0.209-0.481,0.369-0.765,0.48
		c-0.283,0.113-0.556,0.198-0.817,0.258c-0.262,0.06-0.542,0.112-0.839,0.157H128.875z"/>
	<path fill="#286AA3" d="M143.654,169.346c-0.071-0.045-0.163-0.075-0.276-0.09c-0.113-0.016-0.206-0.063-0.276-0.146
		c-0.072-0.083-0.142-0.16-0.212-0.235l-0.17-0.425l0.531-6.335c0.198-0.582,0.552-0.873,1.062-0.873h12.425
		c0.07,0.03,0.162,0.056,0.276,0.078c0.113,0.022,0.205,0.071,0.276,0.146c0.071,0.075,0.134,0.157,0.191,0.246
		c0.071,0.075,0.113,0.161,0.127,0.258s0.021,0.206,0.021,0.324c0,0.12,0,0.239,0,0.357c-0.199,0.509-0.545,0.821-1.041,0.941
		h-11.278l-0.276,3.38h12.701c0.296,0.104,0.474,0.209,0.531,0.313c0.056,0.105,0.109,0.217,0.159,0.336
		c0.05,0.12,0.078,0.24,0.085,0.358c0.007,0.12,0.003,0.261-0.011,0.426c-0.199,0.522-0.56,0.835-1.083,0.94H143.654z
		 M144.377,158.578l-0.595-0.426c-0.057-0.073-0.099-0.17-0.127-0.29s-0.039-0.239-0.031-0.357c0.006-0.12,0.018-0.24,0.031-0.359
		c0.184-0.521,0.488-0.82,0.914-0.895h14.102c0.339,0.164,0.542,0.295,0.605,0.392c0.064,0.097,0.106,0.205,0.127,0.324
		c0.021,0.119,0.028,0.239,0.021,0.357c-0.007,0.12-0.018,0.239-0.032,0.359c-0.184,0.447-0.488,0.746-0.914,0.895H144.377z"/>
	<path fill="#286AA3" d="M160.197,169.346c-0.071-0.045-0.163-0.075-0.275-0.09c-0.114-0.016-0.23-0.067-0.351-0.157
		c-0.12-0.089-0.223-0.306-0.308-0.648l0.934-11.305c0.156-0.552,0.46-0.851,0.914-0.895h11.638c0.283,0.089,0.57,0.183,0.86,0.279
		c0.29,0.098,0.56,0.235,0.808,0.414c0.247,0.179,0.47,0.403,0.668,0.671c0.142,0.195,0.263,0.403,0.361,0.627
		c0.099,0.225,0.173,0.452,0.224,0.683c0.049,0.232,0.081,0.467,0.096,0.705l-0.489,6.111c-0.099,0.344-0.212,0.684-0.339,1.019
		c-0.128,0.336-0.298,0.652-0.51,0.951c-0.213,0.299-0.475,0.567-0.786,0.807c-0.199,0.164-0.418,0.302-0.659,0.413
		c-0.241,0.113-0.485,0.198-0.732,0.258c-0.248,0.06-0.5,0.112-0.754,0.157H160.197z M172.324,166.748
		c0.155-0.119,0.287-0.249,0.393-0.392c0.105-0.142,0.184-0.302,0.233-0.481c0.049-0.179,0.103-0.343,0.159-0.491l0.425-5.216
		c-0.028-0.119-0.046-0.25-0.054-0.392c-0.007-0.143-0.035-0.28-0.084-0.415c-0.051-0.134-0.117-0.238-0.202-0.313
		c-0.113-0.09-0.216-0.172-0.308-0.247c-0.093-0.073-0.202-0.123-0.33-0.145c-0.127-0.023-0.241-0.049-0.34-0.079h-9.939
		l-0.701,8.395h10.109L172.324,166.748z"/>
	<path fill="#286AA3" d="M194.47,169.346c-0.141-0.045-0.282-0.105-0.424-0.18s-0.263-0.194-0.361-0.358l-0.148-0.357l1.168-14.035
		l0.318-0.515c0.128-0.12,0.276-0.21,0.446-0.269c0.17-0.06,0.325-0.09,0.467-0.09c0.156,0.03,0.294,0.075,0.414,0.134
		c0.12,0.06,0.23,0.172,0.33,0.337l0.212,0.469l-1.168,13.924C195.526,168.986,195.108,169.301,194.47,169.346z"/>
	<path fill="#286AA3" d="M206.107,169.346c-0.313-0.045-0.566-0.202-0.766-0.471l-0.191-0.47l1.041-12.513h-7.54
		c-0.425-0.134-0.715-0.426-0.87-0.873l0.063-0.604c0.283-0.553,0.637-0.843,1.062-0.873h17.203c0.623,0.12,0.922,0.529,0.893,1.23
		c-0.041,0.313-0.191,0.591-0.445,0.829l-0.596,0.291h-7.58l-1.043,12.558l-0.316,0.536
		C206.736,169.226,206.432,169.346,206.107,169.346z"/>
	<path fill="#286AA3" d="M217.148,162.585c-0.396-0.269-0.576-0.361-0.541-0.28c0.035,0.082,0.008,0.005-0.084-0.234
		c-0.094-0.238-0.137-0.417-0.129-0.537c0.008-0.119,0.018-0.239,0.033-0.357c0.154-0.478,0.459-0.776,0.912-0.896h17.543
		c0.496,0.179,0.736,0.598,0.723,1.254c-0.043,0.075-0.078,0.172-0.107,0.29c-0.027,0.12-0.084,0.222-0.17,0.303
		c-0.084,0.082-0.17,0.161-0.254,0.235l-0.447,0.224H217.148z"/>
	<path fill="#286AA3" d="M236.686,169.346c-0.297-0.045-0.553-0.202-0.764-0.471l-0.172-0.425l0.576-6.872
		c0.195-0.553,0.529-0.843,0.996-0.873h14.104c0.623-0.09,1.16-0.388,1.613-0.896c0.254-0.313,0.41-0.671,0.467-1.073l0.064-0.873
		c0.014-0.522-0.164-0.977-0.531-1.365c-0.354-0.314-0.771-0.515-1.254-0.604h-14.059c-0.453-0.134-0.744-0.426-0.871-0.873
		l0.063-0.604c0.227-0.522,0.582-0.813,1.064-0.873h13.889c1.275,0.075,2.336,0.626,3.186,1.656
		c0.523,0.791,0.779,1.694,0.766,2.709l-0.064,0.783c-0.17,1.298-0.785,2.402-1.848,3.313c-0.865,0.596-1.793,0.954-2.783,1.073
		h-12.742l-0.447,5.373c-0.141,0.313-0.367,0.574-0.68,0.783L236.686,169.346z"/>
	<path fill="#286AA3" d="M256.648,169.346c-0.072-0.045-0.164-0.075-0.277-0.09c-0.113-0.016-0.205-0.063-0.275-0.146
		c-0.07-0.083-0.143-0.16-0.213-0.235l-0.17-0.425l0.469-5.552c0.197-0.626,0.572-0.948,1.125-0.963h10.555
		c0.623-0.193,0.959-0.351,1.008-0.47c0.051-0.119,0.117-0.246,0.203-0.38c0.086-0.136,0.131-0.273,0.137-0.415
		c0.008-0.142,0.041-0.286,0.096-0.437c-0.027-0.164-0.041-0.316-0.041-0.458c0-0.143-0.025-0.27-0.074-0.381
		c-0.051-0.112-0.125-0.228-0.225-0.347c-0.111-0.09-0.211-0.165-0.295-0.224c-0.086-0.06-0.197-0.109-0.33-0.146
		c-0.135-0.036-0.252-0.07-0.352-0.101h-10.619l-0.594-0.426c-0.057-0.073-0.1-0.17-0.127-0.29c-0.029-0.12-0.039-0.239-0.033-0.357
		c0.008-0.12,0.018-0.24,0.033-0.359c0.213-0.492,0.516-0.791,0.912-0.895h10.959c0.283,0.089,0.574,0.183,0.871,0.279
		c0.297,0.098,0.57,0.235,0.818,0.414s0.463,0.403,0.648,0.671c0.211,0.313,0.377,0.639,0.498,0.974
		c0.121,0.336,0.184,0.703,0.191,1.098c0.006,0.396-0.025,0.795-0.096,1.197c-0.07,0.238-0.139,0.467-0.201,0.684
		c-0.064,0.216-0.164,0.421-0.299,0.615c-0.135,0.193-0.25,0.389-0.35,0.582c0.111,0.089,0.219,0.193,0.318,0.313
		c0.098,0.12,0.184,0.247,0.254,0.381c0.072,0.135,0.156,0.262,0.256,0.381c0.184,0.478,0.283,0.963,0.297,1.455
		s-0.01,1.004-0.074,1.533c-0.063,0.529-0.117,1.056-0.158,1.578c-0.172,0.611-0.588,0.925-1.254,0.94
		c-0.566-0.149-0.871-0.484-0.914-1.007l0.107-1.546c0.156-1.148,0.07-1.857-0.256-2.127c-0.084-0.073-0.168-0.134-0.254-0.179
		s-0.186-0.073-0.299-0.09c-0.111-0.014-0.203-0.044-0.275-0.089H258.24l-0.34,4.142c-0.057,0.089-0.115,0.183-0.18,0.279
		c-0.064,0.098-0.146,0.194-0.244,0.291c-0.1,0.098-0.184,0.168-0.256,0.213L256.648,169.346z"/>
	<path fill="#286AA3" d="M276.164,169.346c-0.311-0.045-0.602-0.105-0.871-0.18c-0.268-0.074-0.531-0.19-0.785-0.347
		c-0.254-0.157-0.482-0.354-0.68-0.593c-0.17-0.238-0.322-0.489-0.457-0.75c-0.135-0.262-0.232-0.529-0.297-0.807
		c-0.064-0.275-0.104-0.57-0.117-0.884l0.51-6.044c0.1-0.313,0.209-0.627,0.33-0.94c0.119-0.313,0.281-0.619,0.488-0.918
		c0.205-0.297,0.449-0.566,0.732-0.805c0.197-0.12,0.396-0.236,0.594-0.348c0.199-0.112,0.404-0.209,0.617-0.291
		c0.211-0.081,0.438-0.146,0.678-0.189h9.324c0.283,0.089,0.57,0.183,0.859,0.279c0.291,0.098,0.561,0.242,0.809,0.437
		s0.471,0.433,0.668,0.717c0.143,0.193,0.26,0.398,0.352,0.615s0.156,0.455,0.191,0.716s0.08,0.504,0.137,0.728l-0.488,5.999
		c-0.1,0.344-0.211,0.684-0.34,1.019c-0.127,0.336-0.297,0.652-0.508,0.951c-0.213,0.299-0.477,0.567-0.787,0.807
		c-0.197,0.164-0.418,0.302-0.658,0.413c-0.24,0.113-0.484,0.198-0.732,0.258s-0.5,0.112-0.754,0.157H276.164z M285.807,166.748
		c0.154-0.119,0.287-0.249,0.393-0.392c0.105-0.142,0.184-0.302,0.234-0.481c0.049-0.179,0.102-0.343,0.158-0.491l0.426-5.104
		c-0.029-0.148-0.047-0.306-0.055-0.471c-0.006-0.163-0.053-0.313-0.137-0.447c-0.084-0.134-0.178-0.261-0.277-0.381
		c-0.111-0.073-0.211-0.141-0.297-0.2s-0.184-0.102-0.297-0.123c-0.113-0.023-0.221-0.049-0.318-0.079h-8.475
		c-0.127,0.03-0.248,0.056-0.361,0.079c-0.113,0.021-0.23,0.063-0.35,0.123c-0.121,0.06-0.217,0.148-0.287,0.269
		c-0.086,0.119-0.17,0.234-0.254,0.347c-0.086,0.111-0.146,0.238-0.182,0.381c-0.035,0.142-0.074,0.272-0.117,0.392l-0.424,5.26
		c0.014,0.165,0.035,0.324,0.063,0.481c0.029,0.157,0.09,0.306,0.182,0.447c0.092,0.143,0.193,0.272,0.307,0.392l0.617,0.225h8.814
		L285.807,166.748z"/>
	<path fill="#286AA3" d="M290.836,169.346c-0.07-0.045-0.162-0.075-0.275-0.09c-0.113-0.016-0.23-0.067-0.35-0.157
		c-0.121-0.089-0.223-0.306-0.309-0.648l0.934-11.305c0.156-0.552,0.461-0.851,0.914-0.895h11.639
		c0.283,0.089,0.57,0.183,0.859,0.279c0.291,0.098,0.559,0.235,0.807,0.414s0.473,0.403,0.67,0.671
		c0.143,0.195,0.262,0.403,0.361,0.627c0.1,0.225,0.174,0.452,0.223,0.683c0.051,0.232,0.082,0.467,0.096,0.705l-0.488,6.111
		c-0.1,0.344-0.213,0.684-0.34,1.019c-0.127,0.336-0.297,0.652-0.51,0.951c-0.211,0.299-0.475,0.567-0.787,0.807
		c-0.197,0.164-0.416,0.302-0.656,0.413c-0.242,0.113-0.486,0.198-0.732,0.258c-0.248,0.06-0.5,0.112-0.756,0.157H290.836z
		 M302.963,166.748c0.156-0.119,0.287-0.249,0.393-0.392c0.107-0.142,0.186-0.302,0.236-0.481c0.047-0.179,0.102-0.343,0.158-0.491
		l0.426-5.216c-0.029-0.119-0.049-0.25-0.055-0.392c-0.006-0.143-0.035-0.28-0.086-0.415c-0.049-0.134-0.115-0.238-0.199-0.313
		c-0.115-0.09-0.217-0.172-0.309-0.247c-0.092-0.073-0.203-0.123-0.33-0.145c-0.127-0.023-0.24-0.049-0.34-0.079h-9.939
		l-0.701,8.395h10.109L302.963,166.748z"/>
	<path fill="#286AA3" d="M310.438,169.346c-0.326-0.045-0.637-0.116-0.934-0.213s-0.578-0.224-0.84-0.381s-0.521-0.354-0.775-0.594
		c-0.17-0.193-0.311-0.41-0.424-0.648c-0.113-0.239-0.195-0.484-0.246-0.738c-0.049-0.254-0.094-0.522-0.137-0.807l0.721-8.819
		c0.186-0.387,0.377-0.634,0.576-0.739c0.197-0.104,0.359-0.155,0.488-0.155c0.127,0,0.246,0,0.359,0
		c0.453,0.104,0.709,0.402,0.766,0.895l-0.68,8.349c0.014,0.12,0.023,0.258,0.031,0.415s0.053,0.284,0.139,0.381
		c0.084,0.097,0.176,0.204,0.275,0.324l0.766,0.358h8.771c0.111-0.029,0.225-0.056,0.34-0.079c0.111-0.021,0.219-0.081,0.318-0.179
		c0.098-0.097,0.189-0.19,0.275-0.279c0.086-0.12,0.158-0.228,0.223-0.324c0.064-0.098,0.111-0.213,0.139-0.347
		c0.029-0.135,0.07-0.262,0.127-0.381l0.68-8.305c0.086-0.075,0.148-0.172,0.191-0.292c0.043-0.118,0.148-0.238,0.318-0.357
		c0.17-0.12,0.475-0.179,0.912-0.179c0.482,0.164,0.736,0.463,0.766,0.895l-0.701,8.596c-0.1,0.344-0.211,0.684-0.34,1.019
		c-0.127,0.336-0.297,0.652-0.508,0.951c-0.213,0.299-0.477,0.567-0.787,0.807c-0.197,0.164-0.418,0.302-0.658,0.413
		c-0.24,0.113-0.484,0.198-0.732,0.258s-0.5,0.112-0.754,0.157H310.438z"/>
	<path fill="#286AA3" d="M327.17,169.346c-0.297-0.045-0.594-0.116-0.891-0.213c-0.299-0.097-0.578-0.224-0.84-0.381
		s-0.498-0.354-0.711-0.594c-0.143-0.193-0.266-0.398-0.371-0.615c-0.107-0.215-0.189-0.443-0.244-0.682
		c-0.057-0.24-0.094-0.479-0.107-0.718l0.51-6.222c0.1-0.344,0.223-0.694,0.373-1.053c0.148-0.357,0.324-0.693,0.529-1.007
		s0.471-0.59,0.797-0.828c0.197-0.12,0.383-0.228,0.553-0.325c0.17-0.097,0.361-0.187,0.572-0.269
		c0.213-0.081,0.426-0.146,0.637-0.189h10.111c0.213,0.044,0.436,0.115,0.668,0.212c0.232,0.098,0.449,0.217,0.648,0.358
		c0.197,0.142,0.375,0.31,0.531,0.503c0.184,0.239,0.32,0.486,0.414,0.739c0.092,0.254,0.15,0.53,0.18,0.828
		c0.027,0.299,0.014,0.604-0.041,0.917l-0.469,0.649c-0.07,0.075-0.166,0.135-0.287,0.18c-0.119,0.044-0.244,0.067-0.371,0.067
		s-0.248,0-0.361,0c-0.313-0.134-0.51-0.275-0.596-0.426c-0.084-0.148-0.119-0.313-0.104-0.492c0.012-0.179,0.016-0.347,0.01-0.504
		c-0.008-0.156-0.064-0.303-0.17-0.437c-0.107-0.135-0.301-0.224-0.584-0.269h-9.324c-0.127,0.03-0.248,0.056-0.361,0.079
		c-0.113,0.021-0.23,0.071-0.35,0.145c-0.121,0.075-0.217,0.172-0.287,0.292c-0.086,0.119-0.162,0.237-0.234,0.357
		c-0.07,0.12-0.131,0.25-0.18,0.392c-0.049,0.143-0.096,0.288-0.139,0.437l-0.445,5.396l0.256,0.895
		c0.068,0.075,0.148,0.142,0.232,0.202c0.084,0.06,0.174,0.101,0.266,0.122c0.092,0.023,0.193,0.05,0.307,0.079h9.664
		c0.299-0.135,0.467-0.287,0.512-0.459c0.041-0.172,0.08-0.343,0.115-0.515s0.088-0.34,0.16-0.505
		c0.07-0.163,0.176-0.297,0.316-0.402c0.1-0.09,0.203-0.152,0.309-0.189c0.107-0.038,0.217-0.056,0.33-0.056s0.227,0,0.34,0
		l0.553,0.357c0.098,0.12,0.158,0.258,0.18,0.414c0.021,0.157,0.025,0.325,0.01,0.504c-0.014,0.179-0.027,0.344-0.041,0.492
		c-0.057,0.239-0.131,0.46-0.225,0.66c-0.092,0.202-0.201,0.4-0.328,0.594s-0.275,0.388-0.447,0.582
		c-0.197,0.164-0.406,0.313-0.625,0.447c-0.219,0.134-0.453,0.231-0.701,0.291s-0.479,0.112-0.689,0.157H327.17z"/>
	<path fill="#286AA3" d="M348.088,169.346c-0.113-0.045-0.217-0.075-0.309-0.09c-0.092-0.016-0.18-0.074-0.264-0.18
		c-0.086-0.104-0.156-0.193-0.213-0.269l-0.148-0.357l0.828-9.872h-5.969l-0.594-0.426c-0.057-0.073-0.1-0.17-0.127-0.29
		c-0.029-0.12-0.041-0.239-0.033-0.357c0.008-0.12,0.018-0.24,0.033-0.359c0.184-0.521,0.488-0.82,0.912-0.895h14.104
		c0.424,0.179,0.658,0.373,0.699,0.581c0.043,0.209,0.061,0.374,0.053,0.492c-0.006,0.12-0.018,0.239-0.031,0.359
		c-0.184,0.447-0.488,0.746-0.914,0.895h-5.945l-0.828,9.827C349.172,169.017,348.754,169.33,348.088,169.346z"/>
	<path fill="#286AA3" d="M358.811,169.346c-0.27-0.045-0.531-0.116-0.785-0.213c-0.256-0.097-0.488-0.224-0.701-0.381
		s-0.404-0.354-0.574-0.594c-0.113-0.238-0.215-0.483-0.309-0.737c-0.092-0.254-0.152-0.519-0.18-0.796
		c-0.029-0.275-0.014-0.57,0.043-0.884c0.184-0.433,0.379-0.69,0.584-0.772c0.205-0.081,0.363-0.122,0.477-0.122
		c0.115,0,0.227,0,0.34,0c0.369,0.119,0.592,0.256,0.67,0.413s0.117,0.415,0.117,0.772c0.014,0.389,0.092,0.643,0.232,0.761
		l0.32,0.18h9.387c0.113-0.029,0.24-0.074,0.381-0.135c0.143-0.06,0.273-0.131,0.395-0.213c0.119-0.081,0.23-0.183,0.33-0.302
		c0.098-0.119,0.168-0.238,0.211-0.358c0.043-0.118,0.07-0.258,0.086-0.413c0.014-0.157,0.049-0.295,0.105-0.415
		c-0.027-0.118-0.051-0.258-0.063-0.414c-0.016-0.156-0.051-0.283-0.107-0.381c-0.057-0.097-0.141-0.204-0.256-0.323
		c-0.057-0.075-0.133-0.143-0.232-0.202s-0.191-0.101-0.275-0.123c-0.086-0.022-0.186-0.056-0.297-0.101h-8.752
		c-0.313-0.03-0.623-0.094-0.934-0.19c-0.313-0.098-0.6-0.227-0.861-0.392c-0.262-0.164-0.492-0.366-0.689-0.604
		c-0.213-0.269-0.389-0.57-0.531-0.906c-0.141-0.337-0.213-0.684-0.213-1.042c0-0.357,0.035-0.729,0.107-1.118
		c0.041-0.284,0.119-0.553,0.232-0.807s0.26-0.488,0.436-0.705c0.178-0.216,0.379-0.422,0.605-0.615
		c0.24-0.164,0.479-0.313,0.711-0.447c0.234-0.134,0.477-0.232,0.723-0.291c0.248-0.06,0.514-0.135,0.797-0.224h9.834
		c0.211,0.044,0.436,0.115,0.668,0.212c0.234,0.098,0.449,0.217,0.648,0.358c0.197,0.142,0.375,0.31,0.531,0.503
		c0.184,0.239,0.322,0.486,0.414,0.739c0.092,0.254,0.154,0.53,0.189,0.828c0.035,0.299,0.033,0.579-0.01,0.84
		c-0.043,0.262-0.213,0.503-0.51,0.727c-0.07,0.075-0.166,0.135-0.287,0.18c-0.119,0.044-0.244,0.067-0.371,0.067s-0.248,0-0.361,0
		c-0.254-0.104-0.438-0.238-0.553-0.402c-0.113-0.165-0.162-0.337-0.148-0.516c0.016-0.179,0.008-0.347-0.02-0.504
		c-0.029-0.156-0.051-0.294-0.064-0.414c-0.016-0.119-0.234-0.216-0.66-0.291h-9.109c-0.156,0.03-0.309,0.064-0.457,0.101
		c-0.148,0.037-0.293,0.098-0.436,0.18c-0.143,0.083-0.275,0.183-0.402,0.302c-0.072,0.074-0.125,0.171-0.16,0.291
		s-0.064,0.228-0.086,0.325c-0.021,0.097-0.031,0.204-0.031,0.324l0.213,0.649c0.113,0.089,0.213,0.164,0.297,0.224
		s0.18,0.108,0.287,0.145c0.105,0.038,0.217,0.079,0.328,0.124h8.709c0.367,0.03,0.719,0.104,1.051,0.224s0.637,0.28,0.914,0.481
		c0.275,0.201,0.533,0.459,0.775,0.772c0.211,0.313,0.367,0.639,0.467,0.974c0.098,0.336,0.141,0.701,0.127,1.097
		c-0.014,0.395-0.035,0.787-0.064,1.175c-0.098,0.313-0.211,0.619-0.338,0.918c-0.129,0.299-0.295,0.574-0.5,0.828
		s-0.449,0.501-0.732,0.739c-0.227,0.209-0.482,0.369-0.766,0.48c-0.283,0.113-0.555,0.198-0.816,0.258s-0.541,0.112-0.84,0.157
		H358.811z"/>
</g>
</svg>
