<?xml version="1.0" encoding="UTF-8" ?>
<!DOCTYPE svg PUBLIC "-//W3C//DTD SVG 1.1//EN" "http://www.w3.org/Graphics/SVG/1.1/DTD/svg11.dtd">
<svg width="300pt" height="300pt" viewBox="0 0 300 300" version="1.1" xmlns="http://www.w3.org/2000/svg">
<g id="#286aa3ff">
<path fill="#286aa3" opacity="1.00" d=" M 164.78 14.67 C 179.37 10.81 193.92 6.80 208.52 3.02 C 213.05 9.52 216.96 16.47 221.83 22.72 C 228.91 19.24 235.99 15.75 243.02 12.14 C 253.57 22.90 264.30 33.48 274.95 44.14 C 271.29 51.16 267.94 58.34 264.14 65.28 C 270.70 69.80 277.45 74.06 284.08 78.48 C 280.32 93.13 276.36 107.73 272.34 122.31 C 264.42 122.54 256.51 123.25 248.59 123.66 C 248.07 131.64 247.87 139.63 247.17 147.60 C 246.48 147.75 245.08 148.06 244.38 148.21 C 244.30 176.80 244.39 205.39 244.36 233.98 C 244.46 240.40 244.87 247.18 241.95 253.12 C 237.42 262.34 228.55 268.83 218.86 271.83 C 225.07 279.84 231.00 288.07 237.16 296.13 C 197.44 296.10 157.72 296.09 118.00 296.14 C 116.52 296.02 114.91 296.35 113.51 295.73 C 106.83 289.09 101.08 281.49 96.64 273.16 C 81.43 273.03 66.22 273.31 51.01 273.04 C 32.84 272.22 16.33 256.40 15.95 238.00 C 15.84 203.36 15.97 168.72 15.92 134.07 C 15.98 127.67 15.67 121.03 18.08 114.96 C 21.79 103.80 31.67 95.25 42.93 92.29 C 47.51 91.03 52.31 91.18 57.02 91.13 C 84.19 91.07 111.36 91.23 138.53 91.06 C 135.41 88.00 131.48 86.02 127.91 83.57 C 131.80 69.03 135.80 54.52 139.57 39.94 C 147.53 39.43 155.49 38.90 163.46 38.44 C 163.90 30.52 164.50 22.61 164.78 14.67 M 184.51 16.80 C 180.33 17.75 176.19 18.87 172.12 20.25 C 170.49 28.45 171.42 36.88 170.07 45.12 C 161.86 46.70 153.42 45.45 145.22 47.16 C 141.94 58.20 139.27 69.42 136.17 80.52 C 140.41 83.09 144.46 85.97 148.74 88.48 C 149.64 91.83 150.72 95.12 151.82 98.41 C 119.22 98.14 86.61 98.40 54.01 98.28 C 47.57 98.45 40.74 99.45 35.56 103.60 C 27.49 108.84 22.98 118.48 23.20 127.99 C 23.23 163.67 23.26 199.34 23.28 235.01 C 22.41 250.81 36.39 265.01 51.97 265.55 C 68.49 265.86 85.02 265.53 101.55 265.70 C 105.21 273.80 110.30 281.24 116.42 287.67 C 117.23 288.80 118.69 288.60 119.90 288.67 C 153.75 288.59 187.60 288.74 221.45 288.60 C 216.98 281.09 211.09 274.51 206.11 267.33 C 213.15 265.44 220.69 264.17 226.60 259.60 C 232.11 255.44 237.12 249.28 236.91 242.01 C 236.87 208.93 236.98 175.84 236.88 142.76 C 237.88 142.38 238.89 142.01 239.91 141.65 C 241.01 135.28 240.97 128.80 241.00 122.36 L 241.66 121.54 C 241.68 119.98 241.69 118.42 241.70 116.87 C 250.00 115.58 258.46 116.32 266.75 114.86 C 268.56 109.25 269.85 103.49 271.53 97.85 C 272.71 92.36 274.94 87.07 275.15 81.40 C 272.03 79.07 268.76 76.97 265.54 74.78 C 261.89 72.66 258.67 69.91 255.00 67.84 C 258.63 61.58 261.27 54.81 264.98 48.60 C 265.39 47.31 265.70 46.00 265.98 44.67 C 257.79 37.21 250.08 29.19 242.44 21.17 C 241.51 21.23 240.58 21.28 239.66 21.35 C 233.28 25.68 225.90 28.27 219.24 32.15 C 215.03 25.33 210.18 18.91 206.17 11.96 C 198.73 12.16 191.66 14.97 184.51 16.80 Z" />
<path fill="#286aa3" opacity="1.00" d=" M 32.45 127.06 C 32.40 117.15 41.00 107.83 51.03 107.77 C 84.65 107.50 118.28 107.95 151.90 107.54 C 150.39 109.95 149.16 112.51 148.09 115.13 C 150.16 117.02 152.09 119.04 154.11 120.98 C 120.41 121.03 86.71 121.02 53.01 120.99 C 51.06 120.84 49.23 121.49 47.50 122.31 C 46.64 124.07 45.81 125.92 45.99 127.94 C 46.01 163.66 46.01 199.38 46.00 235.09 C 45.76 238.49 48.42 242.16 52.02 242.13 C 66.96 242.98 81.95 241.93 96.89 242.62 C 96.84 247.51 98.18 252.23 99.33 256.93 C 85.24 257.09 71.14 256.95 57.04 257.01 C 51.50 256.83 45.58 256.20 40.98 252.81 C 35.35 248.78 31.72 241.92 31.98 234.96 C 32.00 198.99 32.31 163.02 32.45 127.06 Z" />
<path fill="#286aa3" opacity="1.00" d=" M 221.45 145.19 C 223.62 144.64 225.78 144.07 227.97 143.63 C 228.05 176.44 227.98 209.25 228.02 242.06 C 227.97 249.10 221.17 253.16 215.56 255.87 C 211.13 256.90 206.59 257.20 202.04 257.03 C 199.63 252.29 197.72 247.29 196.57 242.10 C 201.05 242.05 205.53 242.26 210.01 242.12 C 212.00 242.25 213.30 240.61 214.73 239.52 C 214.92 208.71 214.86 177.90 214.93 147.10 C 217.12 146.51 219.30 145.89 221.45 145.19 Z" />
<path fill="#286aa3" opacity="1.00" d=" M 126.65 184.70 C 128.44 183.29 130.52 181.96 132.88 181.91 C 154.78 181.84 176.69 181.93 198.60 181.78 C 192.32 193.42 187.74 206.02 185.30 219.02 C 159.02 218.85 132.73 219.26 106.46 218.81 C 109.49 205.82 115.89 192.97 126.65 184.70 Z" />
<path fill="#286aa3" opacity="1.00" d=" M 105.13 221.00 C 131.80 221.00 158.48 221.00 185.15 221.00 C 184.94 229.97 186.69 238.86 189.29 247.41 C 192.86 258.88 197.62 270.11 204.58 279.96 C 176.71 280.06 148.84 279.97 120.96 280.00 C 110.21 267.64 103.84 251.48 103.95 235.04 C 103.78 230.32 104.71 225.68 105.13 221.00 Z" />
</g>
<g id="#ee731bff">
<path fill="#ee731b" opacity="1.00" d=" M 188.33 25.69 C 192.60 24.41 196.93 23.32 201.30 22.46 C 203.22 25.46 205.26 28.39 207.05 31.47 C 208.41 33.66 209.96 35.72 211.38 37.87 C 212.41 37.96 213.43 38.05 214.46 38.14 C 215.48 38.51 216.51 38.85 217.55 39.18 C 218.92 39.65 220.29 40.12 221.65 40.64 C 222.54 40.66 223.42 40.68 224.32 40.69 C 228.97 37.32 234.52 35.51 239.40 32.52 C 244.41 37.55 249.53 42.48 254.39 47.66 C 251.51 52.93 249.07 58.42 246.16 63.68 C 246.18 64.08 246.22 64.88 246.24 65.28 C 247.26 67.65 247.99 70.13 248.87 72.55 C 248.94 73.59 249.01 74.62 249.08 75.66 C 254.50 78.95 259.64 82.69 265.00 86.08 C 263.50 89.78 263.02 93.77 261.81 97.56 C 260.99 100.35 260.28 103.18 259.78 106.05 C 253.76 107.14 247.64 107.11 241.55 107.24 C 241.10 107.55 240.19 108.17 239.74 108.48 C 237.49 111.38 234.42 113.51 232.18 116.42 C 232.18 122.55 232.10 128.70 231.21 134.78 C 224.39 136.39 217.55 137.95 210.88 140.12 C 207.50 134.86 204.05 129.64 200.76 124.33 C 196.39 123.91 192.29 121.64 187.86 122.03 C 182.35 123.84 177.72 127.74 172.13 129.36 C 166.87 124.76 162.52 119.25 157.22 114.70 C 160.07 108.81 163.63 103.21 165.80 97.00 C 164.64 94.62 163.92 92.07 163.20 89.54 C 163.06 88.48 162.88 87.43 162.65 86.40 C 157.39 83.00 152.24 79.40 146.94 76.04 C 149.36 69.49 150.74 62.60 152.45 55.84 C 158.78 55.16 165.12 54.77 171.49 54.80 C 174.06 51.85 176.87 49.13 179.81 46.57 C 179.80 40.33 180.09 34.12 180.94 27.95 C 182.44 27.32 183.96 26.76 185.46 26.14 C 186.41 25.99 187.37 25.84 188.33 25.69 M 185.08 72.98 C 182.61 79.19 183.21 86.53 186.67 92.24 C 191.52 101.23 203.14 105.81 212.84 102.56 C 221.46 100.19 227.54 92.09 228.59 83.37 C 229.63 74.11 224.24 65.01 216.16 60.65 C 212.23 59.33 208.07 58.08 203.88 58.58 C 195.59 59.29 187.78 65.03 185.08 72.98 Z" />
<path fill="#ee731b" opacity="1.00" d=" M 56.49 131.32 C 60.17 128.75 64.85 129.85 69.02 129.82 C 68.96 133.83 69.22 137.84 68.91 141.84 C 68.17 143.37 66.40 142.98 65.01 143.06 C 61.98 143.20 58.84 142.53 56.36 140.73 C 55.42 139.32 54.80 137.74 54.12 136.20 C 54.81 134.54 55.31 132.72 56.49 131.32 Z" />
<path fill="#ee731b" opacity="1.00" d=" M 75.94 129.91 C 80.96 129.47 86.01 129.51 91.04 129.83 C 91.01 133.87 91.25 137.93 90.94 141.96 C 90.69 142.19 90.18 142.66 89.93 142.89 C 85.25 143.07 80.47 143.38 75.88 142.29 C 75.91 138.16 75.90 134.04 75.94 129.91 Z" />
<path fill="#ee731b" opacity="1.00" d=" M 98.95 129.79 C 102.97 129.92 107.46 128.71 111.07 131.02 C 114.33 133.43 114.22 138.75 111.08 141.18 C 107.44 143.47 102.92 143.35 98.86 142.51 C 98.90 138.27 98.89 134.03 98.95 129.79 Z" />
</g>
</svg>
