<svg width="461" height="414" viewBox="0 0 461 414" fill="none" xmlns="http://www.w3.org/2000/svg">
<path d="M222.376 110.761L121.88 64.7916C120.44 64.1327 118.848 65.2815 118.848 66.979V189.875C118.848 192.981 120.588 195.774 123.242 196.927L220.717 239.285C222.152 239.909 223.713 238.761 223.713 237.082V112.949C223.713 111.994 223.186 111.132 222.376 110.761V110.761Z" fill="white"/>
<path d="M231.553 97.7013L328.691 53.2676C330.437 52.4692 330.483 49.7995 328.767 48.9294L233.662 0.71239C231.788 -0.237463 229.623 -0.237463 227.749 0.71239L132.644 48.9294C130.927 49.7995 130.974 52.4692 132.72 53.2676L229.858 97.7013C230.399 97.9496 231.011 97.9496 231.553 97.7013V97.7013Z" fill="white"/>
<path d="M237.695 112.949V237.082C237.695 238.761 239.256 239.909 240.691 239.285L338.166 196.927C340.82 195.774 342.56 192.981 342.56 189.875V66.979C342.56 65.2815 340.968 64.1327 339.528 64.7916L239.032 110.761C238.222 111.132 237.695 111.994 237.695 112.949V112.949Z" fill="white"/>
<path d="M103.528 302.147L3.03235 262.389C1.59264 261.819 0 262.813 0 264.281V370.57C0 373.256 1.74032 375.671 4.39472 376.668L101.869 413.303C103.304 413.842 104.865 412.849 104.865 411.397V304.039C104.865 303.213 104.338 302.467 103.528 302.147V302.147Z" fill="white"/>
<path d="M112.705 290.851L209.843 252.422C211.589 251.732 211.636 249.423 209.919 248.67L114.814 206.969C112.94 206.148 110.775 206.148 108.901 206.969L13.7961 248.67C12.0793 249.423 12.1261 251.732 13.8721 252.422L111.01 290.851C111.552 291.066 112.163 291.066 112.705 290.851V290.851Z" fill="white"/>
<path d="M118.848 304.039V411.397C118.848 412.849 120.409 413.842 121.844 413.303L219.318 376.668C221.972 375.671 223.713 373.256 223.713 370.57V264.281C223.713 262.813 222.12 261.819 220.68 262.389L120.185 302.147C119.375 302.467 118.848 303.213 118.848 304.039V304.039Z" fill="white"/>
<path d="M340.786 302.147L240.29 262.389C238.85 261.819 237.258 262.813 237.258 264.281V370.57C237.258 373.256 238.998 375.671 241.653 376.668L339.127 413.303C340.562 413.842 342.123 412.849 342.123 411.397V304.039C342.123 303.213 341.596 302.467 340.786 302.147V302.147Z" fill="white"/>
<path d="M349.963 290.851L447.101 252.422C448.847 251.732 448.894 249.423 447.177 248.67L352.072 206.969C350.198 206.148 348.033 206.148 346.159 206.969L251.054 248.67C249.337 249.423 249.384 251.732 251.13 252.422L348.268 290.851C348.81 291.066 349.421 291.066 349.963 290.851V290.851Z" fill="white"/>
<path d="M356.105 304.039V411.397C356.105 412.849 357.667 413.842 359.102 413.303L456.576 376.668C459.23 375.671 460.971 373.256 460.971 370.57V264.281C460.971 262.813 459.378 261.819 457.938 262.389L357.442 302.147C356.632 302.467 356.105 303.213 356.105 304.039V304.039Z" fill="white"/>
</svg>
