<svg width="416" height="416" viewBox="0 0 416 416" fill="none" xmlns="http://www.w3.org/2000/svg">
<g clip-path="url(#clip0)">
<path d="M169.006 156.018C176.185 156.018 182.005 150.198 182.005 143.019C182.005 135.839 176.185 130.02 169.006 130.02C161.827 130.02 156.007 135.839 156.007 143.019C156.007 150.198 161.827 156.018 169.006 156.018Z" fill="white"/>
<path d="M247.001 286.009C254.18 286.009 260 280.189 260 273.01C260 265.831 254.18 260.011 247.001 260.011C239.822 260.011 234.002 265.831 234.002 273.01C234.002 280.189 239.822 286.009 247.001 286.009Z" fill="white"/>
<path d="M396.881 208.014L415.132 160.411C417.134 155.16 415.574 149.206 411.18 145.644L371.611 113.563L363.604 63.204C362.72 57.6404 358.352 53.2987 352.788 52.4147L302.43 44.4073L270.374 4.81199C266.838 0.418287 260.755 -1.14161 255.633 0.860257L208.004 19.137L160.401 0.886255C155.124 -1.14161 149.222 0.470284 145.66 4.83799L113.579 44.4333L63.22 52.4407C57.6824 53.3247 53.3147 57.6924 52.4308 63.23L44.4233 113.589L4.82803 145.67C0.460324 149.206 -1.12557 155.16 0.876295 160.411L19.127 208.014L0.876295 255.617C-1.15157 260.869 0.460324 266.822 4.82803 270.358L44.4233 302.414L52.4308 352.772C53.3147 358.336 57.6564 362.704 63.22 363.587L113.579 371.595L145.66 411.164C149.222 415.584 155.176 417.144 160.427 415.116L208.004 396.891L255.607 415.142C257.115 415.714 258.675 416 260.261 416C264.082 416 267.852 414.31 270.374 411.164L302.43 371.595L352.788 363.587C358.352 362.704 362.72 358.336 363.604 352.772L371.611 302.414L411.18 270.358C415.574 266.796 417.134 260.869 415.132 255.617L396.881 208.014ZM169.007 104.021C190.507 104.021 208.004 121.518 208.004 143.019C208.004 164.519 190.507 182.016 169.007 182.016C147.506 182.016 130.009 164.519 130.009 143.019C130.009 121.518 147.506 104.021 169.007 104.021ZM247.001 312.007C225.501 312.007 208.004 294.51 208.004 273.01C208.004 251.509 225.501 234.012 247.001 234.012C268.502 234.012 285.999 251.509 285.999 273.01C285.999 294.51 268.502 312.007 247.001 312.007ZM283.607 124.56L153.59 306.573C151.042 310.109 147.064 312.007 143.009 312.007C140.383 312.007 137.757 311.227 135.469 309.589C129.62 305.403 128.268 297.292 132.453 291.442L262.444 109.455C266.63 103.605 274.742 102.253 280.591 106.439C286.441 110.599 287.767 118.736 283.607 124.56Z" fill="white"/>
</g>
<defs>
<clipPath id="clip0">
<rect width="416" height="416" fill="white"/>
</clipPath>
</defs>
</svg>
