<svg width="546" height="419" viewBox="0 0 546 419" fill="none" xmlns="http://www.w3.org/2000/svg">
<path d="M531.58 326.07H514.978V233.217C514.978 222.353 511.699 211.694 505.617 202.676L464.007 141.047C453.826 126.015 436.882 116.996 418.708 116.996H354.209C346.625 116.996 340.544 123.145 340.544 130.662V326.071H234.913C244.957 334.748 251.857 346.842 253.839 360.507H365.209C369.171 333.383 392.539 312.406 420.757 312.406C448.976 312.406 472.274 333.383 476.238 360.507H531.581C535.339 360.507 538.414 357.432 538.414 353.674V332.903C538.413 329.146 535.339 326.07 531.58 326.07ZM463.529 214.974H378.395C374.638 214.974 371.563 211.967 371.563 208.141V160.929C371.563 157.171 374.638 154.096 378.395 154.096H430.255C432.51 154.096 434.559 155.189 435.857 156.966L469.131 204.247C472.273 208.757 469.062 214.974 463.529 214.974ZM420.757 326.07C397.253 326.07 378.259 345.132 378.259 368.636C378.259 392.072 397.253 411.134 420.757 411.134C444.192 411.134 463.255 392.072 463.255 368.636C463.255 345.134 444.192 326.07 420.757 326.07ZM420.757 389.887C409.004 389.887 399.507 380.321 399.507 368.638C399.507 356.885 409.004 347.388 420.757 347.388C432.508 347.388 442.006 356.885 442.006 368.638C442.006 380.321 432.509 389.887 420.757 389.887ZM66.4227 326.07C62.6646 326.07 59.5899 329.146 59.5899 332.902V353.674C59.5899 357.432 62.6646 360.507 66.4227 360.507H142.81C144.791 346.842 151.692 334.748 161.668 326.071H66.4227V326.07ZM198.289 326.07C174.854 326.07 155.791 345.132 155.791 368.636C155.791 392.072 174.854 411.134 198.289 411.134C221.793 411.134 240.788 392.072 240.788 368.636C240.789 345.134 221.794 326.07 198.289 326.07ZM198.289 389.887C186.538 389.887 177.041 380.321 177.041 368.638C177.041 356.885 186.538 347.388 198.289 347.388C210.041 347.388 219.539 356.885 219.539 368.638C219.539 380.321 210.041 389.887 198.289 389.887ZM300.505 74.6341H221.316C225.21 86.181 227.26 98.5477 227.26 111.325C227.26 175.824 174.787 228.297 110.288 228.297C98.535 228.297 87.1252 226.522 76.398 223.31V298.81C76.398 302.568 79.4727 305.642 83.2308 305.642H314.17C317.929 305.642 321.002 302.568 321.002 298.81V95.1317C321.001 83.7897 311.846 74.6341 300.505 74.6341ZM110.303 8C53.2503 8 7 54.2494 7 111.302C7 168.356 53.2503 214.606 110.303 214.606C167.356 214.606 213.608 168.356 213.608 111.302C213.608 54.2494 167.356 8 110.303 8ZM110.303 191.098C66.2343 191.098 30.5081 155.372 30.5081 111.302C30.5081 67.2325 66.2343 31.5072 110.303 31.5072C154.373 31.5072 190.099 67.2334 190.099 111.302C190.099 155.372 154.373 191.098 110.303 191.098ZM140.779 128.155C139.898 128.155 138.997 128.041 138.103 127.801L104.809 118.827C100.338 117.619 97.229 113.564 97.229 108.932V57.688C97.229 52.03 101.82 47.4392 107.478 47.4392C113.136 47.4392 117.727 52.03 117.727 57.688V101.079L143.441 108.011C148.906 109.485 152.142 115.111 150.667 120.574C149.433 125.145 145.297 128.155 140.779 128.155Z" fill="white"/>
</svg>
