<svg width="231" height="231" viewBox="0 0 231 231" fill="none" xmlns="http://www.w3.org/2000/svg">
<rect width="230.17" height="230.17" fill="#186A9E"/>
<path d="M213.46 59.0941C213.46 58.8695 213.615 58.6508 213.605 58.4287L153.607 116.239L213.533 172.203C213.568 171.804 213.46 171.4 213.46 170.992V59.0941V59.0941Z" fill="white"/>
<path d="M144.449 125.135L119.956 148.7C118.717 149.893 117.116 150.491 115.515 150.491C113.946 150.491 112.378 149.918 111.147 148.771L86.7211 126.01L26.4043 184.149C27.8709 184.676 29.4452 185.085 31.0937 185.085H199.936C202.384 185.085 204.68 184.339 206.677 183.227L144.449 125.135Z" fill="white"/>
<path d="M115.445 135.263L207.009 47.0594C204.936 45.8268 202.523 45 199.937 45H31.0941C27.7261 45 24.64 46.3077 22.2363 48.3022L115.445 135.263Z" fill="white"/>
<path d="M17 61.2422V170.99C17 172.25 17.2896 173.465 17.6039 174.626L77.1725 117.263L17 61.2422Z" fill="white"/>
</svg>
