<svg width="35" height="35" viewBox="0 0 35 35" fill="none" xmlns="http://www.w3.org/2000/svg">
<path d="M17.5 35C27.165 35 35 27.165 35 17.5C35 7.83502 27.165 0 17.5 0C7.83502 0 0 7.83502 0 17.5C0 27.165 7.83502 35 17.5 35Z" fill="#BF1F1D"/>
<path fill-rule="evenodd" clip-rule="evenodd" d="M10.2 7H12.8C12.9576 7 13.1136 7.03104 13.2592 7.09134C13.4048 7.15165 13.5371 7.24004 13.6485 7.35147C13.76 7.4629 13.8483 7.59519 13.9087 7.74078C13.969 7.88637 14 8.04241 14 8.2V15H19V20H14V26.8C14 27.1183 13.8736 27.4235 13.6485 27.6485C13.4235 27.8736 13.1183 28 12.8 28H10.2C10.0424 28 9.88637 27.969 9.74078 27.9087C9.59519 27.8483 9.4629 27.76 9.35147 27.6485C9.24004 27.5371 9.15165 27.4048 9.09134 27.2592C9.03104 27.1136 9 26.9576 9 26.8V8.2C9 7.88174 9.12643 7.57652 9.35147 7.35147C9.57652 7.12643 9.88174 7 10.2 7V7ZM22.2 7H24.8C25.1183 7 25.4235 7.12643 25.6485 7.35147C25.8736 7.57652 26 7.88174 26 8.2V26.8C26 27.1183 25.8736 27.4235 25.6485 27.6485C25.4235 27.8736 25.1183 28 24.8 28H22.2C21.8817 28 21.5765 27.8736 21.3515 27.6485C21.1264 27.4235 21 27.1183 21 26.8V8.2C21 7.88174 21.1264 7.57652 21.3515 7.35147C21.5765 7.12643 21.8817 7 22.2 7V7Z" fill="white"/>
</svg>
